Coordinates
version=1
nRows=40
nColumns=38
inDegrees=no

Units are S.I. units (second, meters, Newtons, ...)
If the header above contains a line with 'inDegrees', this indicates whether rotational values are in degrees (yes) or radians (no).

endheader
time	pelvis_tilt	pelvis_list	pelvis_rotation	pelvis_tx	pelvis_ty	pelvis_tz	hip_flexion_r	hip_adduction_r	hip_rotation_r	knee_angle_r	ankle_angle_r	subtalar_angle_r	mtp_angle_r	hip_flexion_l	hip_adduction_l	hip_rotation_l	knee_angle_l	ankle_angle_l	subtalar_angle_l	mtp_angle_l	lumbar_extension	lumbar_bending	lumbar_rotation	arm_flex_r	arm_add_r	arm_rot_r	elbow_flex_r	pro_sup_r	wrist_flex_r	wrist_dev_r	arm_flex_l	arm_add_l	arm_rot_l	elbow_flex_l	pro_sup_l	wrist_flex_l	wrist_dev_l
0.65	-2.81173	1.52147	-1.95154	0.693955	0.269975	0.952794	0.524404	-0.0506386	0.0938237	1.22856	-0.115244	0	0	0.0083892	0.0764625	-0.267324	0.239489	0.129948	0	0	-0.126414	-0.0620243	-0.119271	-0.286465	-0.0404401	-0.574549	0.350022	1.17546	0	0	-0.266651	-0.335931	0.440085	0.70098	0.657518	0	0
0.66	-2.84993	1.52102	-1.9083	0.692257	0.277891	0.953007	0.529796	-0.0531234	0.0873949	1.19558	-0.105551	0	0	-0.00949852	0.07884	-0.256015	0.224935	0.130799	0	0	-0.128129	-0.060184	-0.125331	-0.282631	-0.0394294	-0.568659	0.351748	1.17192	0	0	-0.261589	-0.340463	0.447599	0.704669	0.662559	0	0
0.67	-2.88056	1.5198	-1.87307	0.690886	0.286006	0.953108	0.534495	-0.0615105	0.071978	1.16133	-0.0976121	0	0	-0.0280324	0.0818184	-0.244409	0.210565	0.13128	0	0	-0.130443	-0.0587817	-0.130053	-0.278866	-0.0387037	-0.562671	0.353301	1.16772	0	0	-0.255157	-0.344849	0.456902	0.707862	0.667605	0	0
0.68	-2.92097	1.51977	-1.82941	0.689702	0.293824	0.953097	0.537853	-0.0615786	0.0673133	1.12363	-0.0898303	0	0	-0.044428	0.0832323	-0.234397	0.197879	0.132372	0	0	-0.13201	-0.0564577	-0.132835	-0.274535	-0.0381938	-0.55606	0.354282	1.16304	0	0	-0.247272	-0.34926	0.468238	0.7097	0.672809	0	0
0.69	-2.95959	1.52015	-1.78802	0.688586	0.301715	0.952927	0.540876	-0.0609536	0.0628622	1.08464	-0.0832804	0	0	-0.0598109	0.0842573	-0.225214	0.186136	0.134001	0	0	-0.13288	-0.0540612	-0.134478	-0.270459	-0.0377775	-0.549121	0.35525	1.15784	0	0	-0.238797	-0.353641	0.480347	0.710853	0.67809	0	0
0.7	-2.99676	1.52097	-1.74841	0.687581	0.309491	0.952615	0.543731	-0.0602339	0.0574742	1.04461	-0.0778825	0	0	-0.0737638	0.0848827	-0.217605	0.176255	0.136608	0	0	-0.133354	-0.0516506	-0.135197	-0.266462	-0.0373359	-0.542181	0.356246	1.15217	0	0	-0.229589	-0.357865	0.492017	0.711987	0.682767	0	0
0.71	-3.03454	1.52221	-1.70819	0.686602	0.31729	0.952126	0.546488	-0.0596014	0.0503761	1.00402	-0.0733099	0	0	-0.0858215	0.0848922	-0.212222	0.16926	0.140849	0	0	-0.133416	-0.0491733	-0.135471	-0.262623	-0.0368549	-0.535369	0.357405	1.14632	0	0	-0.220119	-0.36159	0.501755	0.713216	0.686317	0	0
0.72	-3.02787	1.52431	-1.70717	0.686377	0.325308	0.951507	0.547057	-0.0511226	0.0443452	0.964826	-0.0760345	0	0	-0.0970903	0.0803467	-0.216521	0.16239	0.150254	0	0	-0.132003	-0.0504304	-0.138557	-0.260424	-0.0338937	-0.528833	0.358038	1.1403	0	0	-0.210749	-0.366658	0.509121	0.714026	0.688782	0	0
0.73	-3.10273	1.5215	-1.6372	0.684986	0.333343	0.951218	0.546193	-0.0582542	0.0341079	0.920552	-0.064447	0	0	-0.121154	0.0875223	-0.190136	0.139595	0.140838	0	0	-0.136642	-0.0449457	-0.133143	-0.254735	-0.0352895	-0.530632	0.359545	1.1492	0	0	-0.20113	-0.366901	0.517565	0.713098	0.704514	0	0
0.74	-3.10556	1.5223	-1.62764	0.684781	0.341508	0.950574	0.544026	-0.0503492	0.0265977	0.880019	-0.0658072	0	0	-0.136701	0.0838162	-0.190064	0.126988	0.147089	0	0	-0.136551	-0.0456113	-0.134797	-0.2531	-0.0325731	-0.525073	0.361025	1.14489	0	0	-0.191591	-0.370739	0.523818	0.71314	0.709102	0	0
0.75	3.13854	1.52288	-1.58678	0.684042	0.349587	0.9498	0.543868	-0.0502877	0.0142649	0.838342	-0.0604585	0	0	-0.150131	0.083429	-0.184788	0.11883	0.150493	0	0	-0.136791	-0.0431982	-0.134096	-0.250119	-0.0318561	-0.519732	0.363345	1.14085	0	0	-0.182984	-0.37225	0.528492	0.7132	0.712728	0	0
0.76	3.09095	1.52328	-1.53698	0.683385	0.357756	0.948962	0.542984	-0.049897	-0.000396333	0.797144	-0.0550011	0	0	-0.162579	0.0819937	-0.180956	0.113071	0.155039	0	0	-0.136874	-0.0405578	-0.134137	-0.247199	-0.0308876	-0.514743	0.365752	1.13713	0	0	-0.175056	-0.373467	0.531558	0.713215	0.715229	0	0
0.77	3.03632	1.52372	-1.4802	0.682846	0.36599	0.948052	0.541605	-0.0486127	-0.0157851	0.755993	-0.0496995	0	0	-0.173653	0.0797702	-0.178605	0.109875	0.160807	0	0	-0.137058	-0.0376689	-0.133935	-0.244105	-0.0296725	-0.510574	0.367672	1.13354	0	0	-0.167081	-0.374719	0.534625	0.71337	0.71674	0	0
0.78	2.97738	1.52451	-1.41927	0.682416	0.374302	0.947043	0.540291	-0.0466814	-0.0321978	0.715458	-0.044223	0	0	-0.183124	0.0771326	-0.177612	0.108865	0.167589	0	0	-0.136629	-0.0347985	-0.133616	-0.240918	-0.0282878	-0.506855	0.368858	1.13013	0	0	-0.159458	-0.375864	0.537228	0.713675	0.717891	0	0
0.79	2.91659	1.52586	-1.35665	0.682066	0.382721	0.945903	0.539454	-0.0444328	-0.0495624	0.676204	-0.0381747	0	0	-0.191153	0.0744617	-0.177666	0.109253	0.174856	0	0	-0.135219	-0.0321923	-0.13334	-0.238171	-0.0265893	-0.503619	0.370458	1.12647	0	0	-0.152628	-0.376647	0.538413	0.714169	0.719114	0	0
0.8	2.84637	1.52727	-1.28445	0.681809	0.391226	0.94467	0.538563	-0.0416828	-0.0685997	0.637878	-0.0314767	0	0	-0.197887	0.0711797	-0.178867	0.111746	0.182984	0	0	-0.133567	-0.0294441	-0.132772	-0.233002	-0.02288	-0.522703	0.368267	1.15589	0	0	-0.145771	-0.377813	0.541247	0.714866	0.715893	0	0
0.81	2.74567	1.52625	-1.18144	0.681537	0.399897	0.943557	0.534077	-0.036952	-0.0910148	0.598159	-0.0250052	0	0	-0.206506	0.0656742	-0.180012	0.114672	0.191685	0	0	-0.133278	-0.0246362	-0.134158	-0.236856	-0.0250642	-0.475886	0.380623	1.08577	0	0	-0.140597	-0.37694	0.538014	0.713848	0.721934	0	0
0.82	2.65001	1.52743	-1.08439	0.681487	0.408686	0.942152	0.53267	-0.0320346	-0.111015	0.561372	-0.0169895	0	0	-0.211946	0.0614017	-0.181909	0.118791	0.199995	0	0	-0.130234	-0.0214438	-0.133724	-0.234501	-0.0227922	-0.479365	0.381479	1.09263	0	0	-0.135318	-0.377215	0.538296	0.713756	0.722131	0	0
0.83	2.53452	1.5276	-0.967414	0.681529	0.417527	0.94074	0.529912	-0.0253736	-0.130882	0.524076	-0.00914843	0	0	-0.216293	0.0557059	-0.185584	0.12541	0.209536	0	0	-0.12753	-0.0172513	-0.133321	-0.232327	-0.0206852	-0.482353	0.382828	1.0987	0	0	-0.130061	-0.377151	0.538218	0.713468	0.722402	0	0
0.84	2.41016	1.52746	-0.841631	0.681704	0.426365	0.939252	0.527189	-0.0176527	-0.150932	0.487229	-0.00197127	0	0	-0.218646	0.0493685	-0.190831	0.134947	0.220123	0	0	-0.124562	-0.0130496	-0.132844	-0.230206	-0.0184657	-0.485584	0.384548	1.10356	0	0	-0.125036	-0.377172	0.537602	0.713527	0.722908	0	0
0.85	2.27022	1.52688	-0.699968	0.68197	0.435371	0.937665	0.52434	-0.00884605	-0.170732	0.45026	0.00397712	0	0	-0.219236	0.0421142	-0.197317	0.14687	0.231828	0	0	-0.120424	-0.00865105	-0.132688	-0.228679	-0.0164351	-0.488478	0.386364	1.10729	0	0	-0.120694	-0.377123	0.536689	0.71333	0.72365	0	0
0.86	2.12336	1.52541	-0.551296	0.682338	0.444484	0.936009	0.521044	0.00129601	-0.188897	0.412955	0.00770615	0	0	-0.218538	0.0339704	-0.204999	0.160715	0.244184	0	0	-0.115738	-0.0039971	-0.132801	-0.227487	-0.0147387	-0.49037	0.388248	1.11045	0	0	-0.116832	-0.377395	0.536185	0.713233	0.724302	0	0
0.87	1.98315	1.52302	-0.409332	0.682774	0.453769	0.934309	0.51715	0.0124498	-0.20491	0.376076	0.0100082	0	0	-0.217432	0.0254198	-0.213515	0.175464	0.256486	0	0	-0.110695	0.000730035	-0.132799	-0.226904	-0.0134948	-0.491385	0.390195	1.11335	0	0	-0.113364	-0.377628	0.535869	0.712963	0.72457	0	0
0.88	1.85996	1.51982	-0.28424	0.68322	0.463266	0.932608	0.512441	0.0241931	-0.21938	0.340145	0.011489	0	0	-0.216759	0.016742	-0.222132	0.190126	0.268268	0	0	-0.105491	0.0054517	-0.132862	-0.226823	-0.0128051	-0.491563	0.391821	1.11554	0	0	-0.110216	-0.377677	0.535957	0.712248	0.724434	0	0
0.89	1.74767	1.51428	-0.168904	0.683637	0.472846	0.93091	0.505591	0.0385276	-0.230069	0.301602	0.00989809	0	0	-0.212104	0.00374449	-0.239425	0.214301	0.285277	0	0	-0.100116	0.0120102	-0.135095	-0.231688	-0.0166559	-0.451335	0.400707	1.05458	0	0	-0.10824	-0.376805	0.533348	0.710335	0.728159	0	0
0.9	1.67062	1.51191	-0.0902944	0.683993	0.482728	0.929247	0.500458	0.0485794	-0.238387	0.271039	0.012304	0	0	-0.215544	-0.00155195	-0.24237	0.22237	0.291828	0	0	-0.0952823	0.0145122	-0.135014	-0.231187	-0.0163942	-0.456192	0.39991	1.06346	0	0	-0.105974	-0.377079	0.534761	0.709448	0.726585	0	0
0.91	1.61266	1.50903	-0.0300834	0.684276	0.492831	0.927688	0.493625	0.0589558	-0.243499	0.242109	0.0137947	0	0	-0.219064	-0.00793735	-0.247495	0.232808	0.299073	0	0	-0.0912331	0.0172684	-0.135645	-0.231078	-0.0167272	-0.459888	0.398962	1.07076	0	0	-0.104105	-0.3771	0.535473	0.708726	0.725293	0	0
0.92	1.56708	1.50676	0.0180692	0.684516	0.503136	0.926208	0.487477	0.0677534	-0.246803	0.21945	0.016382	0	0	-0.222565	-0.0140505	-0.253077	0.24485	0.305797	0	0	-0.0875276	0.0191888	-0.136685	-0.231628	-0.0174884	-0.462147	0.397959	1.07708	0	0	-0.102685	-0.377177	0.535848	0.708187	0.724084	0	0
0.93	1.5337	1.50498	0.0543442	0.684739	0.513637	0.92484	0.482793	0.074766	-0.250826	0.205994	0.0210612	0	0	-0.226091	-0.0201219	-0.258221	0.258577	0.311339	0	0	-0.0842867	0.0205412	-0.138179	-0.23272	-0.0185667	-0.462756	0.396732	1.08292	0	0	-0.101725	-0.37754	0.537239	0.706901	0.722801	0	0
0.94	1.50829	1.50339	0.0827604	0.684971	0.524343	0.92355	0.48055	0.0801834	-0.255533	0.203953	0.0269496	0	0	-0.229129	-0.0266512	-0.263218	0.274624	0.315551	0	0	-0.0812151	0.0217146	-0.139988	-0.234283	-0.0200214	-0.462245	0.395712	1.08811	0	0	-0.101327	-0.377978	0.539181	0.705133	0.72138	0	0
0.95	1.48502	1.50151	0.109016	0.685179	0.535285	0.922326	0.480398	0.084815	-0.257865	0.211546	0.030039	0	0	-0.231201	-0.034071	-0.268626	0.292861	0.319299	0	0	-0.0777067	0.0234314	-0.142124	-0.236504	-0.0219988	-0.461742	0.394789	1.0927	0	0	-0.101857	-0.378056	0.540813	0.702957	0.719829	0	0
0.96	1.46287	1.49916	0.13418	0.685344	0.546391	0.921175	0.48078	0.0897663	-0.252962	0.224471	0.0262913	0	0	-0.23181	-0.0425744	-0.273929	0.313849	0.32273	0	0	-0.0738588	0.0259564	-0.144578	-0.238998	-0.0243469	-0.461288	0.393293	1.09688	0	0	-0.103138	-0.377461	0.541746	0.699889	0.718112	0	0
0.97	1.44084	1.49631	0.159943	0.685414	0.557685	0.920103	0.480152	0.0953865	-0.241163	0.238098	0.0164776	0	0	-0.230569	-0.052222	-0.277596	0.338176	0.325306	0	0	-0.0693371	0.0292692	-0.148031	-0.241877	-0.0268878	-0.461078	0.391845	1.10029	0	0	-0.105653	-0.376219	0.5412	0.696382	0.716803	0	0
0.98	1.39774	1.49161	0.209054	0.685377	0.569164	0.918887	0.480313	0.102101	-0.227525	0.250114	0.00606372	0	0	-0.221795	-0.0665675	-0.284255	0.373966	0.330177	0	0	-0.0613807	0.0342444	-0.154651	-0.248264	-0.0316573	-0.440227	0.394458	1.07252	0	0	-0.110073	-0.374492	0.53924	0.692534	0.716052	0	0
0.99	1.38018	1.48879	0.232636	0.685226	0.580915	0.918037	0.477187	0.107016	-0.214371	0.26116	-3.53982e-05	0	0	-0.218559	-0.0763581	-0.279551	0.400975	0.326807	0	0	-0.0555197	0.0377325	-0.160471	-0.251806	-0.0338331	-0.444078	0.392643	1.07794	0	0	-0.114098	-0.372924	0.538449	0.688849	0.714928	0	0
1	1.35314	1.48401	0.266764	0.685115	0.592714	0.917196	0.474735	0.113168	-0.204202	0.26847	-0.00957914	0	0	-0.20952	-0.0901299	-0.27745	0.436004	0.322964	0	0	-0.0475984	0.0430195	-0.167116	-0.255902	-0.0360622	-0.447219	0.390178	1.08276	0	0	-0.118112	-0.370852	0.538149	0.683735	0.713441	0	0
1.01	1.33255	1.47705	0.294056	0.685183	0.604466	0.916603	0.473347	0.120308	-0.199424	0.275185	-0.027248	0	0	-0.196868	-0.107504	-0.276734	0.476551	0.316445	0	0	-0.0392307	0.0506585	-0.17282	-0.260003	-0.0384845	-0.449463	0.387034	1.08739	0	0	-0.121229	-0.36814	0.539167	0.676395	0.711477	0	0
1.02	1.32521	1.46778	0.305838	0.685557	0.616016	0.91648	0.474142	0.128397	-0.19916	0.287182	-0.0462724	0	0	-0.181562	-0.128177	-0.277596	0.521927	0.305391	0	0	-0.0318915	0.0611228	-0.1758	-0.262981	-0.0414644	-0.450605	0.382004	1.09244	0	0	-0.122955	-0.364305	0.541214	0.666799	0.709383	0	0
1.03	1.33147	1.45742	0.300922	0.686156	0.627371	0.916951	0.477389	0.136385	-0.203029	0.308802	-0.054656	0	0	-0.164689	-0.150228	-0.279175	0.571195	0.287858	0	0	-0.0265929	0.0735627	-0.175753	-0.264414	-0.0450401	-0.450918	0.377049	1.09596	0	0	-0.123856	-0.359454	0.544007	0.65625	0.707311	0	0
1.04	1.34448	1.44797	0.287137	0.686736	0.638674	0.917918	0.480961	0.142484	-0.210019	0.336374	-0.0518294	0	0	-0.146961	-0.170774	-0.279554	0.622407	0.262565	0	0	-0.0231352	0.0859413	-0.17399	-0.26525	-0.0487315	-0.452129	0.373555	1.09611	0	0	-0.125083	-0.35467	0.547159	0.647441	0.704336	0	0
